<svg width="1200" height="900" viewBox="0 0 1200 900" fill="none" xmlns="http://www.w3.org/2000/svg">
  <defs>
    <linearGradient id="bg" x1="110" y1="100" x2="1090" y2="820" gradientUnits="userSpaceOnUse">
      <stop stop-color="#0E1B31"/>
      <stop offset="0.5" stop-color="#24528A"/>
      <stop offset="1" stop-color="#06101F"/>
    </linearGradient>
    <linearGradient id="azure" x1="280" y1="160" x2="900" y2="690" gradientUnits="userSpaceOnUse">
      <stop stop-color="#7FD8FF"/>
      <stop offset="1" stop-color="#1E90FF"/>
    </linearGradient>
  </defs>
  <rect width="1200" height="900" rx="60" fill="url(#bg)"/>
  <circle cx="990" cy="200" r="160" fill="#1E90FF" fill-opacity="0.14"/>
  <circle cx="170" cy="760" r="220" fill="#7FD8FF" fill-opacity="0.08"/>
  <rect x="86" y="84" width="1028" height="732" rx="44" stroke="white" stroke-opacity="0.12"/>

  <g transform="translate(96 104)">
    <rect x="0" y="0" width="120" height="120" rx="30" fill="white" fill-opacity="0.08"/>
    <path d="M62 16L100 88H24L62 16Z" fill="#63B3FF"/>
    <path d="M62 36L83 76H41L62 36Z" fill="#FFFFFF" fill-opacity="0.9"/>
    <path d="M20 92H104" stroke="#63B3FF" stroke-width="10" stroke-linecap="round"/>
  </g>

  <text x="260" y="165" fill="#BFD9FF" font-family="Arial, Helvetica, sans-serif" font-size="28" letter-spacing="7">MICROSOFT</text>
  <text x="260" y="230" fill="#FFFFFF" font-family="Arial, Helvetica, sans-serif" font-size="50" font-weight="700">Azure Developer Associate</text>
  <text x="260" y="292" fill="#D9E9FF" font-family="Arial, Helvetica, sans-serif" font-size="30">AZ-204</text>

  <rect x="260" y="350" width="244" height="52" rx="26" fill="url(#azure)" fill-opacity="0.18" stroke="#7FD8FF" stroke-opacity="0.5"/>
  <text x="302" y="385" fill="#EAF7FF" font-family="Arial, Helvetica, sans-serif" font-size="22" letter-spacing="4">APP DEVELOPMENT</text>

  <g transform="translate(260 468)">
    <rect x="0" y="20" width="248" height="124" rx="24" fill="#FFFFFF" fill-opacity="0.08"/>
    <rect x="28" y="42" width="52" height="80" rx="14" fill="#1E90FF" fill-opacity="0.9"/>
    <rect x="98" y="28" width="52" height="94" rx="14" fill="#7FD8FF" fill-opacity="0.85"/>
    <rect x="168" y="56" width="52" height="66" rx="14" fill="#63B3FF" fill-opacity="0.78"/>
  </g>

  <text x="820" y="560" fill="#D9E9FF" font-family="Arial, Helvetica, sans-serif" font-size="28" text-anchor="middle">Issued: November 2025</text>
  <text x="820" y="612" fill="#FFFFFF" font-family="Arial, Helvetica, sans-serif" font-size="34" font-weight="700" text-anchor="middle">Azure Certified</text>
  <text x="820" y="654" fill="#BFD9FF" font-family="Arial, Helvetica, sans-serif" font-size="22" text-anchor="middle">Cloud-native app deployment and Azure developer workflows</text>
</svg>
