<svg width="1200" height="900" viewBox="0 0 1200 900" fill="none" xmlns="http://www.w3.org/2000/svg">
  <defs>
    <linearGradient id="bg" x1="120" y1="80" x2="1100" y2="820" gradientUnits="userSpaceOnUse">
      <stop stop-color="#0C1E3D"/>
      <stop offset="0.45" stop-color="#123B75"/>
      <stop offset="1" stop-color="#06101F"/>
    </linearGradient>
    <linearGradient id="azure" x1="300" y1="180" x2="820" y2="720" gradientUnits="userSpaceOnUse">
      <stop stop-color="#79D7FF"/>
      <stop offset="1" stop-color="#2F8CFF"/>
    </linearGradient>
  </defs>
  <rect width="1200" height="900" rx="60" fill="url(#bg)"/>
  <circle cx="1020" cy="170" r="180" fill="#2F8CFF" fill-opacity="0.15"/>
  <circle cx="180" cy="760" r="220" fill="#79D7FF" fill-opacity="0.09"/>
  <rect x="86" y="84" width="1028" height="732" rx="44" stroke="white" stroke-opacity="0.12"/>

  <g transform="translate(96 104)">
    <rect x="0" y="0" width="120" height="120" rx="30" fill="white" fill-opacity="0.08"/>
    <rect x="20" y="20" width="34" height="34" rx="8" fill="#F25022"/>
    <rect x="66" y="20" width="34" height="34" rx="8" fill="#7FBA00"/>
    <rect x="20" y="66" width="34" height="34" rx="8" fill="#00A4EF"/>
    <rect x="66" y="66" width="34" height="34" rx="8" fill="#FFB900"/>
  </g>

  <text x="260" y="165" fill="#BFD9FF" font-family="Arial, Helvetica, sans-serif" font-size="28" letter-spacing="7">MICROSOFT</text>
  <text x="260" y="230" fill="#FFFFFF" font-family="Arial, Helvetica, sans-serif" font-size="58" font-weight="700">Azure Fundamentals</text>
  <text x="260" y="292" fill="#D9E9FF" font-family="Arial, Helvetica, sans-serif" font-size="30">AZ-900</text>

  <rect x="260" y="350" width="212" height="52" rx="26" fill="url(#azure)" fill-opacity="0.18" stroke="#79D7FF" stroke-opacity="0.5"/>
  <text x="302" y="385" fill="#DFF5FF" font-family="Arial, Helvetica, sans-serif" font-size="22" letter-spacing="4">CLOUD BASELINE</text>

  <g transform="translate(260 468)">
    <path d="M0 178L118 18L228 178H0Z" fill="#79D7FF" fill-opacity="0.9"/>
    <path d="M74 178L151 67L228 178H74Z" fill="#2F8CFF" fill-opacity="0.95"/>
    <path d="M112 178L151 120L190 178H112Z" fill="#FFFFFF" fill-opacity="0.9"/>
    <circle cx="82" cy="58" r="18" fill="#FFFFFF" fill-opacity="0.16"/>
    <circle cx="188" cy="58" r="18" fill="#FFFFFF" fill-opacity="0.16"/>
  </g>

  <text x="820" y="560" fill="#D9E9FF" font-family="Arial, Helvetica, sans-serif" font-size="28" text-anchor="middle">Issued: October 2025</text>
  <text x="820" y="612" fill="#FFFFFF" font-family="Arial, Helvetica, sans-serif" font-size="34" font-weight="700" text-anchor="middle">Microsoft Certified</text>
  <text x="820" y="654" fill="#BFD9FF" font-family="Arial, Helvetica, sans-serif" font-size="22" text-anchor="middle">Foundational cloud literacy and core Azure concepts</text>
</svg>
