<svg width="1200" height="900" viewBox="0 0 1200 900" fill="none" xmlns="http://www.w3.org/2000/svg">
  <defs>
    <linearGradient id="bg" x1="120" y1="90" x2="1080" y2="830" gradientUnits="userSpaceOnUse">
      <stop stop-color="#061934"/>
      <stop offset="0.5" stop-color="#0B3772"/>
      <stop offset="1" stop-color="#030A16"/>
    </linearGradient>
    <linearGradient id="blue" x1="280" y1="160" x2="900" y2="700" gradientUnits="userSpaceOnUse">
      <stop stop-color="#9DD7FF"/>
      <stop offset="1" stop-color="#3A8DFF"/>
    </linearGradient>
  </defs>
  <rect width="1200" height="900" rx="60" fill="url(#bg)"/>
  <circle cx="1020" cy="160" r="170" fill="#3A8DFF" fill-opacity="0.14"/>
  <circle cx="200" cy="740" r="210" fill="#9DD7FF" fill-opacity="0.08"/>
  <rect x="86" y="84" width="1028" height="732" rx="44" stroke="white" stroke-opacity="0.12"/>

  <g transform="translate(96 104)">
    <rect x="0" y="0" width="120" height="120" rx="30" fill="white" fill-opacity="0.08"/>
    <path d="M26 36H94V48H26V36Z" fill="#5AA7FF"/>
    <path d="M26 56H94V68H26V56Z" fill="#5AA7FF"/>
    <path d="M26 76H94V88H26V76Z" fill="#5AA7FF"/>
    <rect x="18" y="18" width="84" height="84" rx="18" stroke="#5AA7FF" stroke-width="2" stroke-opacity="0.3"/>
  </g>

  <text x="260" y="165" fill="#B7D4FF" font-family="Arial, Helvetica, sans-serif" font-size="28" letter-spacing="7">IBM</text>
  <text x="260" y="230" fill="#FFFFFF" font-family="Arial, Helvetica, sans-serif" font-size="42" font-weight="700">DevOps and Software Engineering</text>
  <text x="260" y="292" fill="#D8E7FF" font-family="Arial, Helvetica, sans-serif" font-size="30">Professional Certificate</text>

  <rect x="260" y="350" width="248" height="52" rx="26" fill="url(#blue)" fill-opacity="0.18" stroke="#9DD7FF" stroke-opacity="0.5"/>
  <text x="302" y="385" fill="#EAF4FF" font-family="Arial, Helvetica, sans-serif" font-size="22" letter-spacing="4">ENGINEERING TRACK</text>

  <g transform="translate(260 468)">
    <rect x="0" y="58" width="248" height="76" rx="22" fill="#FFFFFF" fill-opacity="0.08"/>
    <rect x="22" y="18" width="64" height="136" rx="14" fill="#3A8DFF" fill-opacity="0.92"/>
    <rect x="98" y="18" width="64" height="136" rx="14" fill="#5AA7FF" fill-opacity="0.86"/>
    <rect x="174" y="18" width="50" height="136" rx="14" fill="#9DD7FF" fill-opacity="0.78"/>
  </g>

  <text x="820" y="560" fill="#D8E7FF" font-family="Arial, Helvetica, sans-serif" font-size="28" text-anchor="middle">Issued: September 2025</text>
  <text x="820" y="612" fill="#FFFFFF" font-family="Arial, Helvetica, sans-serif" font-size="34" font-weight="700" text-anchor="middle">IBM Professional</text>
  <text x="820" y="654" fill="#B7D4FF" font-family="Arial, Helvetica, sans-serif" font-size="22" text-anchor="middle">DevOps systems, delivery, and software engineering skills</text>
</svg>
