<svg width="1200" height="900" viewBox="0 0 1200 900" fill="none" xmlns="http://www.w3.org/2000/svg">
  <defs>
    <linearGradient id="bg" x1="140" y1="100" x2="1060" y2="820" gradientUnits="userSpaceOnUse">
      <stop stop-color="#2A0C0C"/>
      <stop offset="0.5" stop-color="#6C1212"/>
      <stop offset="1" stop-color="#1A0606"/>
    </linearGradient>
    <linearGradient id="red" x1="280" y1="160" x2="880" y2="680" gradientUnits="userSpaceOnUse">
      <stop stop-color="#FF8A8A"/>
      <stop offset="1" stop-color="#E00000"/>
    </linearGradient>
  </defs>
  <rect width="1200" height="900" rx="60" fill="url(#bg)"/>
  <circle cx="960" cy="200" r="170" fill="#FF4D4D" fill-opacity="0.14"/>
  <circle cx="210" cy="720" r="230" fill="#FF8A8A" fill-opacity="0.08"/>
  <rect x="86" y="84" width="1028" height="732" rx="44" stroke="white" stroke-opacity="0.12"/>

  <g transform="translate(96 104)">
    <rect x="0" y="0" width="120" height="120" rx="30" fill="white" fill-opacity="0.08"/>
    <circle cx="60" cy="60" r="32" stroke="#FF6B6B" stroke-width="12"/>
    <circle cx="60" cy="60" r="10" fill="#FF6B6B"/>
  </g>

  <text x="260" y="165" fill="#FFC8C8" font-family="Arial, Helvetica, sans-serif" font-size="28" letter-spacing="7">ORACLE</text>
  <text x="260" y="230" fill="#FFFFFF" font-family="Arial, Helvetica, sans-serif" font-size="50" font-weight="700">OCI DevOps Professional</text>
  <text x="260" y="292" fill="#FFDCDC" font-family="Arial, Helvetica, sans-serif" font-size="30">Oracle Cloud Infrastructure 2025</text>

  <rect x="260" y="350" width="246" height="52" rx="26" fill="url(#red)" fill-opacity="0.18" stroke="#FF8A8A" stroke-opacity="0.5"/>
  <text x="300" y="385" fill="#FFECEC" font-family="Arial, Helvetica, sans-serif" font-size="22" letter-spacing="4">DEVOPS PIPELINE</text>

  <g transform="translate(260 468)">
    <path d="M0 180H200L100 22L0 180Z" fill="#FF5E5E" fill-opacity="0.95"/>
    <path d="M50 180H150L100 92L50 180Z" fill="#FFFFFF" fill-opacity="0.16"/>
    <path d="M100 92L132 150H68L100 92Z" fill="#FFFFFF" fill-opacity="0.9"/>
    <path d="M100 92L154 180H46L100 92Z" fill="#E00000" fill-opacity="0.85"/>
  </g>

  <text x="820" y="560" fill="#FFDCDC" font-family="Arial, Helvetica, sans-serif" font-size="28" text-anchor="middle">Issued: September 2025</text>
  <text x="820" y="612" fill="#FFFFFF" font-family="Arial, Helvetica, sans-serif" font-size="34" font-weight="700" text-anchor="middle">Oracle Certified</text>
  <text x="820" y="654" fill="#FFC8C8" font-family="Arial, Helvetica, sans-serif" font-size="22" text-anchor="middle">DevOps lifecycle, automation, delivery, and cloud ops</text>
</svg>
